<svg width="22" height="22" viewBox="0 0 22 22" fill="none" xmlns="http://www.w3.org/2000/svg">
<path fill-rule="evenodd" clip-rule="evenodd" d="M11 20L9.0491 20.8079L7.55585 19.3149L5.4443 19.3147L4.63604 17.364L2.6853 16.5557L2.68508 14.4442L1.19215 12.9509L2 11L1.19215 9.0491L2.68508 7.55585L2.6853 5.4443L4.63604 4.63604L5.4443 2.6853L7.55585 2.68508L9.0491 1.19215L11 2L12.9509 1.19215L14.4442 2.68508L16.5557 2.6853L17.364 4.63604L19.3147 5.4443L19.3149 7.55585L20.8079 9.0491L20 11L20.8079 12.9509L19.3149 14.4442L19.3147 16.5557L17.364 17.364L16.5557 19.3147L14.4442 19.3149L12.9509 20.8079L11 20Z" fill="#F0F0F5" stroke="#2D2D32" stroke-linecap="round" stroke-linejoin="round"/>
<path d="M6.96074 11.2122C6.70382 10.9583 6.28726 10.9583 6.03034 11.2122C5.77342 11.4661 5.77342 11.8777 6.03034 12.1316L9.10051 15.1657C9.35744 15.4196 9.77399 15.4196 10.0309 15.1657L16.1713 9.09755C16.4282 8.84365 16.4282 8.432 16.1713 8.1781C15.9143 7.9242 15.4978 7.9242 15.2409 8.1781L9.56572 13.7865L6.96074 11.2122Z" fill="#2D2D32" stroke="#2D2D32" stroke-width="0.506465"/>
</svg>
